<svg width="20" height="22" viewBox="0 0 20 22" fill="none" xmlns="http://www.w3.org/2000/svg">
<g clip-path="url(#clip0_203_17)">
<path d="M19.9905 11.1915C19.9905 10.3529 19.9224 9.74094 19.7752 9.10633H10.1992V12.8913H15.8201C15.7068 13.832 15.0948 15.2485 13.7349 16.2004L13.7159 16.3271L16.7436 18.6727L16.9534 18.6936C18.8798 16.9144 19.9905 14.2966 19.9905 11.1915Z" fill="#4285F4"/>
<path d="M10.1992 21.1641C12.953 21.1641 15.2648 20.2574 16.9534 18.6936L13.7349 16.2004C12.8737 16.801 11.7177 17.2203 10.1992 17.2203C7.50211 17.2203 5.21297 15.4412 4.39695 12.982L4.27734 12.9922L1.12906 15.4287L1.08789 15.5431C2.76508 18.8748 6.21016 21.1641 10.1992 21.1641Z" fill="#34A853"/>
<path d="M4.39695 12.982C4.18164 12.3474 4.05703 11.6674 4.05703 10.9648C4.05703 10.2622 4.18164 9.58227 4.38562 8.94766L4.37992 8.8125L1.19219 6.33688L1.08789 6.38649C0.396641 7.76906 0 9.32164 0 10.9648C0 12.608 0.396641 14.1605 1.08789 15.5431L4.39695 12.982Z" fill="#FBBC05"/>
<path d="M10.1992 4.7093C12.1144 4.7093 13.4062 5.53656 14.1429 6.22789L17.0213 3.41742C15.2535 1.77422 12.953 0.765625 10.1992 0.765625C6.21016 0.765625 2.76508 3.05477 1.08789 6.38648L4.38563 8.94766C5.21297 6.48852 7.50211 4.7093 10.1992 4.7093Z" fill="#EB4335"/>
</g>
<defs>
<clipPath id="clip0_203_17">
<rect width="20" height="20.4688" fill="white" transform="translate(0 0.765625)"/>
</clipPath>
</defs>
</svg>
