<svg width="167" height="128" viewBox="0 0 167 128" fill="none" xmlns="http://www.w3.org/2000/svg">
<g clip-path="url(#clip0_203_45)">
<path d="M62.4074 17.9148C57.0756 14.9674 50.7914 14.2587 44.9372 15.9448L25.8315 21.4471C19.9773 23.1331 15.0326 27.0756 12.0852 32.4074C5.94759 43.5103 9.97271 57.4863 21.0755 63.6239C26.4073 66.5713 32.6915 67.2798 38.5457 65.5938L51.7612 61.7878C51.7613 61.7876 51.7613 61.7881 51.7612 61.7878L90.2668 50.6983C93.0627 49.8931 96.064 50.2316 98.6104 51.6392C102.874 53.9959 104.952 58.7724 104.08 63.3101L116.232 59.8102C115.753 52.2449 111.542 45.0764 104.416 41.1371C99.0842 38.1897 92.8001 37.481 86.9458 39.1671L35.2248 54.0626C32.4288 54.8679 29.4275 54.5294 26.8811 53.1218C21.5784 50.1905 19.6561 43.5157 22.5874 38.213C23.9951 35.6665 26.3566 33.7836 29.1525 32.9784L48.2581 27.476C51.0541 26.6708 54.0554 27.0092 56.6018 28.4169C60.8651 30.7737 62.9432 35.5502 62.0708 40.088L74.2232 36.5882C73.7442 29.0228 69.5338 21.8542 62.4074 17.9148Z" fill="white"/>
<path d="M77.2334 77.285C74.4374 78.0902 71.4361 77.7517 68.8897 76.3441C64.6271 73.9877 62.5487 69.2121 63.4204 64.6749L51.2684 68.1746C51.7481 75.7393 55.9584 82.9071 63.0841 86.8462C68.4159 89.7936 74.7001 90.5021 80.5543 88.8162L132.275 73.9206C135.071 73.1154 138.073 73.4539 140.619 74.8615C145.922 77.7929 147.844 84.4677 144.913 89.7703C143.505 92.3167 141.144 94.1997 138.348 95.0049L119.242 100.507C116.446 101.312 113.445 100.974 110.898 99.5664C106.635 97.2098 104.557 92.4336 105.429 87.8961L93.2771 91.396C93.7563 98.9611 97.9667 106.129 105.093 110.069C110.425 113.016 116.709 113.724 122.563 112.038L141.669 106.536C147.523 104.85 152.468 100.908 155.415 95.5759C161.553 84.4731 157.528 70.497 146.425 64.3594C141.093 61.412 134.809 60.7034 128.954 62.3894L77.2334 77.285Z" fill="white"/>
</g>
<defs>
<clipPath id="clip0_203_45">
<rect width="156" height="60" fill="white" transform="translate(30) rotate(28.9338)"/>
</clipPath>
</defs>
</svg>
